<svg width="7" height="7" viewBox="0 0 7 7" version="1.1" xmlns="http://www.w3.org/2000/svg" xmlns:xlink="http://www.w3.org/1999/xlink">
<title>close</title>
<desc>Created using Figma</desc>
<g id="Canvas" transform="translate(-1589 298)">
<g id="close">
<g id="Group">
<g id="Vector">
<use xlink:href="#path0_fill" transform="translate(1589 -298)" fill="#FFFFFF"/>
</g>
</g>
</g>
</g>
<defs>
<path id="path0_fill" d="M 6.85507 5.76757L 4.5776 3.50763L 6.85507 1.23243C 7.16077 0.927029 6.9315 0.667441 6.64108 0.362044C 6.33538 0.056647 6.07553 -0.157131 5.76983 0.148266L 3.50764 2.42348L 1.23017 0.148266C 0.924468 -0.157131 0.664623 0.0719169 0.358921 0.362044C 0.0685054 0.667441 -0.145485 0.942299 0.144931 1.23243L 2.40712 3.49236L 0.144931 5.76757C -0.16077 6.07297 0.0685054 6.33256 0.358921 6.63796C 0.664623 6.94335 0.924468 7.15713 1.23017 6.85173L 3.49236 4.59179L 5.75455 6.85173C 6.06025 7.15713 6.32009 6.92808 6.62579 6.63796C 6.93149 6.33256 7.14549 6.07297 6.85507 5.76757Z"/>
</defs>
</svg>
