<svg width="649" height="60" viewBox="0 0 649 60" version="1.1" xmlns="http://www.w3.org/2000/svg" xmlns:xlink="http://www.w3.org/1999/xlink">
<title>controls</title>
<desc>Created using Figma</desc>
<g id="Canvas" transform="translate(493 -13)">
<g id="controls">
<g id="Rectangle 4">
<use xlink:href="#path0_fill" transform="translate(-493 13)"/>
</g>
<g id="Rectangle 5">
<use xlink:href="#path1_fill" transform="translate(-409 37)" fill="#FFFFFF" fill-opacity="0.1"/>
</g>
<g id="01:08: 34">
<use xlink:href="#path2_fill" transform="translate(9 35)" fill="#FFFFFF"/>
</g>
<g id="Rectangle 5.1">
<use xlink:href="#path3_fill" transform="translate(-409 37)" fill="#3AA1E9"/>
</g>
<g id="Group">
<g id="Vector">
<use xlink:href="#path4_fill" transform="translate(-459 33)" fill="#FFFFFF"/>
</g>
</g>
<g id="Group">
<g id="Vector">
<use xlink:href="#path5_fill" transform="translate(98 30)" fill="#FFFFFF"/>
</g>
</g>
</g>
</g>
<defs>
<path id="path0_fill" d="M 0 0L 649 0L 649 60L 0 60L 0 0Z"/>
<path id="path1_fill" d="M 0 0L 398 0L 398 12L 0 12L 0 0Z"/>
<path id="path2_fill" d="M 7.06836 8.75488C 7.06836 10.236 6.81543 11.3366 6.30957 12.0566C 5.80371 12.7767 5.01302 13.1367 3.9375 13.1367C 2.87565 13.1367 2.08952 12.7858 1.5791 12.084C 1.06868 11.3776 0.804362 10.3249 0.786133 8.92578L 0.786133 7.2373C 0.786133 5.77441 1.03906 4.6875 1.54492 3.97656C 2.05078 3.26562 2.84375 2.91016 3.92383 2.91016C 4.99479 2.91016 5.7832 3.25423 6.28906 3.94238C 6.79492 4.62598 7.05469 5.68327 7.06836 7.11426L 7.06836 8.75488ZM 5.80371 7.02539C 5.80371 5.95443 5.65332 5.17513 5.35254 4.6875C 5.05176 4.19531 4.57552 3.94922 3.92383 3.94922C 3.27669 3.94922 2.80501 4.19303 2.50879 4.68066C 2.21257 5.16829 2.0599 5.91797 2.05078 6.92969L 2.05078 8.95312C 2.05078 10.0286 2.20573 10.8239 2.51562 11.3389C 2.83008 11.8493 3.30404 12.1045 3.9375 12.1045C 4.56185 12.1045 5.02441 11.863 5.3252 11.3799C 5.63053 10.8968 5.79004 10.1357 5.80371 9.09668L 5.80371 7.02539ZM 12.8447 13L 11.5732 13L 11.5732 4.57129L 9.02344 5.50781L 9.02344 4.35938L 12.6465 2.99902L 12.8447 2.99902L 12.8447 13ZM 16.6387 12.3369C 16.6387 12.1182 16.7025 11.9359 16.8301 11.79C 16.9622 11.6442 17.1582 11.5713 17.418 11.5713C 17.6777 11.5713 17.8737 11.6442 18.0059 11.79C 18.1426 11.9359 18.2109 12.1182 18.2109 12.3369C 18.2109 12.5465 18.1426 12.722 18.0059 12.8633C 17.8737 13.0046 17.6777 13.0752 17.418 13.0752C 17.1582 13.0752 16.9622 13.0046 16.8301 12.8633C 16.7025 12.722 16.6387 12.5465 16.6387 12.3369ZM 16.6455 6.30078C 16.6455 6.08203 16.7093 5.89974 16.8369 5.75391C 16.9691 5.60807 17.165 5.53516 17.4248 5.53516C 17.6846 5.53516 17.8805 5.60807 18.0127 5.75391C 18.1494 5.89974 18.2178 6.08203 18.2178 6.30078C 18.2178 6.51042 18.1494 6.68587 18.0127 6.82715C 17.8805 6.96842 17.6846 7.03906 17.4248 7.03906C 17.165 7.03906 16.9691 6.96842 16.8369 6.82715C 16.7093 6.68587 16.6455 6.51042 16.6455 6.30078ZM 26.1816 8.75488C 26.1816 10.236 25.9287 11.3366 25.4229 12.0566C 24.917 12.7767 24.1263 13.1367 23.0508 13.1367C 21.9889 13.1367 21.2028 12.7858 20.6924 12.084C 20.182 11.3776 19.9176 10.3249 19.8994 8.92578L 19.8994 7.2373C 19.8994 5.77441 20.1523 4.6875 20.6582 3.97656C 21.1641 3.26562 21.957 2.91016 23.0371 2.91016C 24.1081 2.91016 24.8965 3.25423 25.4023 3.94238C 25.9082 4.62598 26.168 5.68327 26.1816 7.11426L 26.1816 8.75488ZM 24.917 7.02539C 24.917 5.95443 24.7666 5.17513 24.4658 4.6875C 24.165 4.19531 23.6888 3.94922 23.0371 3.94922C 22.39 3.94922 21.9183 4.19303 21.6221 4.68066C 21.3258 5.16829 21.1732 5.91797 21.1641 6.92969L 21.1641 8.95312C 21.1641 10.0286 21.319 10.8239 21.6289 11.3389C 21.9434 11.8493 22.4173 12.1045 23.0508 12.1045C 23.6751 12.1045 24.1377 11.863 24.4385 11.3799C 24.7438 10.8968 24.9033 10.1357 24.917 9.09668L 24.917 7.02539ZM 33.8379 5.64453C 33.8379 6.14128 33.7057 6.58333 33.4414 6.9707C 33.1816 7.35807 32.8285 7.66113 32.3818 7.87988C 32.9014 8.10319 33.3115 8.42904 33.6123 8.85742C 33.9176 9.28581 34.0703 9.77116 34.0703 10.3135C 34.0703 11.1748 33.7786 11.8607 33.1953 12.3711C 32.6165 12.8815 31.8532 13.1367 30.9053 13.1367C 29.9482 13.1367 29.1803 12.8815 28.6016 12.3711C 28.0273 11.8561 27.7402 11.1702 27.7402 10.3135C 27.7402 9.77572 27.8861 9.29036 28.1777 8.85742C 28.474 8.42448 28.8818 8.09635 29.4014 7.87305C 28.9593 7.6543 28.6107 7.35124 28.3555 6.96387C 28.1003 6.5765 27.9727 6.13672 27.9727 5.64453C 27.9727 4.80599 28.2415 4.14062 28.7793 3.64844C 29.3171 3.15625 30.0257 2.91016 30.9053 2.91016C 31.7803 2.91016 32.4867 3.15625 33.0244 3.64844C 33.5667 4.14062 33.8379 4.80599 33.8379 5.64453ZM 32.8057 10.2861C 32.8057 9.73014 32.6279 9.27669 32.2725 8.92578C 31.9215 8.57487 31.4613 8.39941 30.8916 8.39941C 30.3219 8.39941 29.8639 8.57259 29.5176 8.91895C 29.1758 9.2653 29.0049 9.72103 29.0049 10.2861C 29.0049 10.8512 29.1712 11.2956 29.5039 11.6191C 29.8411 11.9427 30.3083 12.1045 30.9053 12.1045C 31.4977 12.1045 31.9626 11.9427 32.2998 11.6191C 32.637 11.291 32.8057 10.8467 32.8057 10.2861ZM 30.9053 3.94922C 30.4085 3.94922 30.0052 4.10417 29.6953 4.41406C 29.39 4.7194 29.2373 5.13639 29.2373 5.66504C 29.2373 6.1709 29.3877 6.58105 29.6885 6.89551C 29.9938 7.2054 30.3994 7.36035 30.9053 7.36035C 31.4111 7.36035 31.8145 7.2054 32.1152 6.89551C 32.4206 6.58105 32.5732 6.1709 32.5732 5.66504C 32.5732 5.15918 32.416 4.74674 32.1016 4.42773C 31.7871 4.10872 31.3883 3.94922 30.9053 3.94922ZM 35.752 12.3369C 35.752 12.1182 35.8158 11.9359 35.9434 11.79C 36.0755 11.6442 36.2715 11.5713 36.5312 11.5713C 36.791 11.5713 36.987 11.6442 37.1191 11.79C 37.2559 11.9359 37.3242 12.1182 37.3242 12.3369C 37.3242 12.5465 37.2559 12.722 37.1191 12.8633C 36.987 13.0046 36.791 13.0752 36.5312 13.0752C 36.2715 13.0752 36.0755 13.0046 35.9434 12.8633C 35.8158 12.722 35.752 12.5465 35.752 12.3369ZM 35.7588 6.30078C 35.7588 6.08203 35.8226 5.89974 35.9502 5.75391C 36.0824 5.60807 36.2783 5.53516 36.5381 5.53516C 36.7979 5.53516 36.9938 5.60807 37.126 5.75391C 37.2627 5.89974 37.3311 6.08203 37.3311 6.30078C 37.3311 6.51042 37.2627 6.68587 37.126 6.82715C 36.9938 6.96842 36.7979 7.03906 36.5381 7.03906C 36.2783 7.03906 36.0824 6.96842 35.9502 6.82715C 35.8226 6.68587 35.7588 6.51042 35.7588 6.30078ZM 44.3652 7.4082L 45.3154 7.4082C 45.9124 7.39909 46.3818 7.24186 46.7236 6.93652C 47.0654 6.63118 47.2363 6.21875 47.2363 5.69922C 47.2363 4.53255 46.6553 3.94922 45.4932 3.94922C 44.9463 3.94922 44.5088 4.10645 44.1807 4.4209C 43.8571 4.73079 43.6953 5.14323 43.6953 5.6582L 42.4307 5.6582C 42.4307 4.86979 42.7178 4.21582 43.292 3.69629C 43.8708 3.1722 44.6045 2.91016 45.4932 2.91016C 46.432 2.91016 47.168 3.15853 47.7012 3.65527C 48.2344 4.15202 48.501 4.84245 48.501 5.72656C 48.501 6.15951 48.3597 6.57878 48.0771 6.98438C 47.7992 7.38997 47.4186 7.69303 46.9355 7.89355C 47.4824 8.06673 47.904 8.35384 48.2002 8.75488C 48.501 9.15592 48.6514 9.64583 48.6514 10.2246C 48.6514 11.1178 48.3597 11.8265 47.7764 12.3506C 47.193 12.8747 46.4342 13.1367 45.5 13.1367C 44.5658 13.1367 43.8047 12.8838 43.2168 12.3779C 42.6335 11.8721 42.3418 11.2044 42.3418 10.375L 43.6133 10.375C 43.6133 10.8991 43.7842 11.3184 44.126 11.6328C 44.4678 11.9473 44.9258 12.1045 45.5 12.1045C 46.1107 12.1045 46.5778 11.945 46.9014 11.626C 47.2249 11.307 47.3867 10.849 47.3867 10.252C 47.3867 9.67318 47.209 9.22884 46.8535 8.91895C 46.498 8.60905 45.9854 8.44954 45.3154 8.44043L 44.3652 8.44043L 44.3652 7.4082ZM 55.7266 9.65723L 57.1074 9.65723L 57.1074 10.6895L 55.7266 10.6895L 55.7266 13L 54.4551 13L 54.4551 10.6895L 49.9229 10.6895L 49.9229 9.94434L 54.3799 3.04688L 55.7266 3.04688L 55.7266 9.65723ZM 51.3584 9.65723L 54.4551 9.65723L 54.4551 4.77637L 54.3047 5.0498L 51.3584 9.65723Z"/>
<path id="path3_fill" d="M 0 0L 211 0L 211 12L 0 12L 0 0Z"/>
<path id="path4_fill" fill-rule="evenodd" d="M 7.49778 0L 11.9911 0L 11.9911 18L 7.49778 18L 7.49778 0ZM 0 0L 4.49335 0L 4.49335 18L 0 18L 0 0Z"/>
<path id="path5_fill" fill-rule="evenodd" d="M 23.2128 26L 21.7128 24.1C 24.4128 21.2 26.0128 17.3 26.0128 13C 26.0128 8.7 24.4128 4.8 21.7128 1.9L 23.3128 0C 26.4128 3.5 28.2128 8 28.2128 13C 28.2128 18 26.3128 22.5 23.2128 26ZM 19.3128 22.4L 18.0128 20.6C 20.0128 18.7 21.2128 16 21.2128 13C 21.2128 10.1 20.0128 7.4 18.1128 5.5L 19.4128 3.7C 21.7128 6.1 23.1128 9.4 23.1128 13C 23.1128 16.7 21.6128 20 19.3128 22.4ZM 15.7128 18.5L 13.8128 16.7C 15.0128 15.9 16.2128 14.5 16.2128 13C 16.2128 11.6 15.6128 10.4 14.6128 9.5L 15.6128 7.4C 17.1128 8.8 18.1128 10.8 18.1128 13C 18.1128 15.2 17.2128 17.1 15.7128 18.5ZM 11.0128 20.2L 10.0128 20.1L 6.11284 17.2C 5.41284 16.4 4.01284 16.2 4.01284 16.2L 2.01284 16.2C -0.287158 16.2 0.0128419 14.2 0.0128419 14.2L 0.0128419 12.1C 0.0128419 10.2 1.91284 10.1 1.91284 10.1L 4.21284 10.1C 5.41284 10.1 6.01284 9.1 6.01284 9.1L 10.0128 6.2L 10.9128 6.2C 12.0128 6.2 12.0128 7.2 12.0128 7.2L 12.0128 19.3C 12.1128 20.2 11.0128 20.2 11.0128 20.2Z"/>
</defs>
</svg>
